<?xml version="1.0" encoding="UTF-8"?>
<svg width="25px" height="25px" viewBox="0 0 25 25" version="1.1" xmlns="http://www.w3.org/2000/svg" xmlns:xlink="http://www.w3.org/1999/xlink">
    <!-- Generator: Sketch 52.6 (67491) - http://www.bohemiancoding.com/sketch -->
    <title>Footer/logo-fb</title>
    <desc>Created with Sketch.</desc>
    <g id="Footer/logo-fb" stroke="none" stroke-width="1" fill="none" fill-rule="evenodd">
        <g id="logo-fb" fill="#677B8C">
            <path d="M14.4615438,24.8469825 L14.4615438,16.0769403 L17.361073,16.0769403 L17.9230821,12.5384691 L14.4615438,12.5384691 L14.4615438,10.1937102 C14.4615438,9.20516402 14.9373836,8.230786 16.4901525,8.230786 L18.076923,8.230786 L18.076923,5.10816923 C17.1162549,4.93350256 16.1800506,4.84616923 15.2683104,4.84616923 C12.4130794,4.84616923 10.5384613,6.6132383 10.5384613,9.74609321 L10.5384613,12.5384691 L7.38461538,12.5384691 L7.38461538,16.0769403 L10.5384613,16.0769403 L10.5384613,24.8469833 C4.56675203,23.9057904 0,18.7361977 0,12.5 C0,5.59645 5.59645,0 12.5,0 C19.40355,0 25,5.59645 25,12.5 C25,18.736196 20.4332505,23.9057875 14.4615438,24.8469825 Z" id="path-1"></path>
        </g>
    </g>
</svg>