<?xml version="1.0" encoding="UTF-8"?>
<svg width="25px" height="25px" viewBox="0 0 25 25" version="1.1" xmlns="http://www.w3.org/2000/svg" xmlns:xlink="http://www.w3.org/1999/xlink">
    <!-- Generator: Sketch 52.6 (67491) - http://www.bohemiancoding.com/sketch -->
    <title>Footer/logo-instagram</title>
    <desc>Created with Sketch.</desc>
    <g id="Footer/logo-instagram" stroke="none" stroke-width="1" fill="none" fill-rule="evenodd">
        <g id="logo-instagram" fill="#677B8C" fill-rule="nonzero">
            <path d="M12.5011719,0 C9.10634487,0 8.68029876,0.0147449453 7.34695153,0.0750181425 C6.01620851,0.135550023 5.1078657,0.344824772 4.31306576,0.65188179 C3.49092178,0.969027455 2.79351867,1.39326798 2.09871978,2.08369358 C1.40340004,2.77386048 0.976312253,3.46661423 0.655996416,4.28301857 C0.346097356,5.07277853 0.135157658,5.9753244 0.0752612007,7.29667843 C0.0156251628,8.62113668 0,9.04460117 0,12.416796 C0,15.7889908 0.015104324,16.2109032 0.07552162,17.5353615 C0.136720174,18.8572328 0.347399451,19.75952 0.656256836,20.5490213 C0.975791414,21.3656843 1.4028792,22.0584382 2.09793852,22.748605 C2.792477,23.4392893 3.4898801,23.8645645 4.31150324,24.1817102 C5.10682403,24.4887672 6.01542725,24.698042 7.34590985,24.7585738 C8.67925708,24.818847 9.10504277,24.833592 12.4996094,24.833592 C15.8946968,24.833592 16.3194408,24.818847 17.6527881,24.7585738 C18.983531,24.698042 19.8929156,24.4887672 20.6882364,24.1817102 C21.51012,23.8645645 22.2064814,23.4392893 22.9010198,22.748605 C23.5963396,22.0584382 24.0234273,21.3656843 24.3437431,20.54928 C24.6510381,19.75952 24.8619777,18.8569742 24.9244784,17.5356202 C24.9843748,16.2111619 25,15.7889908 25,12.416796 C25,9.04460117 24.9843748,8.62139537 24.9244784,7.29693712 C24.8619777,5.97506572 24.6510381,5.07277853 24.3437431,4.28327725 C24.0234273,3.46661423 23.5963396,2.77386048 22.9010198,2.08369358 C22.2057,1.3930093 21.5103804,0.968768772 20.687455,0.65188179 C19.8905718,0.344824772 18.9817082,0.135550023 17.6509651,0.0750181425 C16.3176179,0.0147449453 15.8931343,3.67611008e-15 12.4972656,3.67611008e-15 L12.5011719,0 Z M11.379806,2.23761012 C11.712622,2.23709275 12.08398,2.23761012 12.5011719,2.23761012 C15.8387067,2.23761012 16.2342837,2.24950955 17.5522661,2.30900668 C18.7710289,2.3643649 19.4324941,2.5666552 19.8731237,2.7366101 C20.4564631,2.96166453 20.8723529,3.23069512 21.309597,3.66528297 C21.7471015,4.09987083 22.0179378,4.51376403 22.2450233,5.09321452 C22.416119,5.5303892 22.6200273,6.18744467 22.6754966,7.39808227 C22.7353931,8.70701952 22.7484141,9.10021805 22.7484141,12.4139505 C22.7484141,15.7276829 22.7353931,16.1208815 22.6754966,17.4298187 C22.6197669,18.6404563 22.416119,19.2975118 22.2450233,19.7346865 C22.0184586,20.314137 21.7471015,20.7267367 21.309597,21.1610658 C20.8720924,21.5956538 20.4567235,21.8646843 19.8731237,22.0897388 C19.4330149,22.2604697 18.7710289,22.4622427 17.5522661,22.5176008 C16.2345441,22.577098 15.8387067,22.5900322 12.5011719,22.5900322 C9.16337669,22.5900322 8.76779966,22.577098 7.4500776,22.5176008 C6.23131492,22.4617253 5.56984968,22.259435 5.12895968,22.0894802 C4.54562027,21.8644257 4.12894926,21.5953952 3.6914447,21.1608072 C3.25394015,20.7262193 2.98310399,20.3133608 2.75601829,19.7336517 C2.58492275,19.296477 2.38101438,18.6394217 2.32554505,17.428784 C2.26564861,16.1198467 2.25366931,15.7266482 2.25366931,12.4108463 C2.25366931,9.0950444 2.26564861,8.70391532 2.32554505,7.39497807 C2.3812748,6.18434047 2.58492275,5.527285 2.75601829,5.08959295 C2.98258315,4.51014247 3.25394015,4.09624927 3.6914447,3.6616614 C4.12894926,3.22707355 4.54562027,2.95804297 5.12895968,2.73247117 C5.56958926,2.56174023 6.23131492,2.35996728 7.4500776,2.3043504 C8.60321461,2.25261375 9.05009428,2.23709275 11.379806,2.23450592 L11.379806,2.23761012 Z M19.1736372,4.29931562 C18.3455035,4.29931562 17.6736216,4.96594235 17.6736216,5.78881377 C17.6736216,6.6114265 18.3455035,7.2788293 19.1736372,7.2788293 C20.0017708,7.2788293 20.6736529,6.6114265 20.6736529,5.78881377 C20.6736529,4.96620103 20.0017708,4.29879825 19.1736372,4.29879825 L19.1736372,4.29931562 Z M12.5011719,6.04025388 C8.95608287,6.04025388 6.08183418,8.89534092 6.08183418,12.416796 C6.08183418,15.9382511 8.95608287,18.7920447 12.5011719,18.7920447 C16.0462609,18.7920447 18.919468,15.9382511 18.919468,12.416796 C18.919468,8.89534092 16.0460005,6.04025388 12.5009115,6.04025388 L12.5011719,6.04025388 Z M12.5011719,8.277864 C14.8022375,8.277864 16.667882,10.1308121 16.667882,12.416796 C16.667882,14.7025212 14.8022375,16.555728 12.5011719,16.555728 C10.1998458,16.555728 8.33446181,14.7025212 8.33446181,12.416796 C8.33446181,10.1308121 10.1998458,8.277864 12.5011719,8.277864 Z" id="Shape"></path>
        </g>
    </g>
</svg>