<?xml version="1.0" encoding="UTF-8"?>
<svg width="25px" height="26px" viewBox="0 0 25 26" version="1.1" xmlns="http://www.w3.org/2000/svg" xmlns:xlink="http://www.w3.org/1999/xlink">
    <!-- Generator: Sketch 52.6 (67491) - http://www.bohemiancoding.com/sketch -->
    <title>Footer/Whatsapp-logo</title>
    <desc>Created with Sketch.</desc>
    <g id="Footer/Whatsapp-logo" stroke="none" stroke-width="1" fill="none" fill-rule="evenodd">
        <path d="M18.2273664,15.3217939 C17.9163307,15.1634187 16.3871847,14.3976086 16.1020969,14.2919677 C15.817009,14.1864129 15.6096801,14.1335065 15.4022666,14.450257 C15.1949377,14.7673516 14.5988987,15.4804273 14.4175175,15.6914509 C14.2360519,15.9029907 14.0545862,15.9294009 13.7435506,15.7710256 C13.4325994,15.6123923 12.4303546,15.2780924 11.2424181,14.199575 C10.3177631,13.3602981 9.69357878,12.3235037 9.51211313,12.0064091 C9.33073201,11.6896586 9.49275792,11.5183794 9.64861384,11.3605203 C9.78849537,11.2188342 9.95956499,10.9906053 10.1150828,10.8060779 C10.2705161,10.6209483 10.3224118,10.4889833 10.4261185,10.2775296 C10.5297407,10.0665059 10.4779296,9.88137638 10.4001707,9.72308716 C10.3224118,9.56453987 9.70034043,8.00633738 9.44111586,7.37266435 C9.18873746,6.75542244 8.9323866,6.83878236 8.74137012,6.82931941 C8.56024256,6.81985647 8.35257554,6.81787786 8.14533112,6.81787786 C7.93800218,6.81787786 7.6010187,6.8974526 7.31593084,7.21411706 C7.03084298,7.5310396 6.22739052,8.29693573 6.22739052,9.85496617 C6.22739052,11.4132547 7.34179413,12.9185507 7.49739649,13.1300905 C7.6528298,13.3411141 9.69053604,16.5388144 12.8106126,17.9099087 C13.5527031,18.2361221 14.1320071,18.4308006 14.583685,18.576788 C15.3287337,18.8176629 16.0068422,18.7836823 16.5427026,18.702301 C17.1402629,18.6112847 18.3828842,17.9364049 18.6421088,17.1968329 C18.9011643,16.457433 18.9011643,15.823674 18.8234054,15.6914509 C18.745731,15.5595719 18.5384021,15.4804273 18.2273664,15.3217939 Z M12.5524023,23.2086402 L12.5480917,23.2086402 C10.6916821,23.207952 8.87077111,22.7001361 7.28229166,21.7405937 L6.90448474,21.5127089 L2.98873161,22.5580199 L4.03391288,18.6721917 L3.78787352,18.2738878 C2.75224307,16.5971405 2.20531051,14.6592159 2.2060712,12.6696753 C2.20835325,6.86355806 6.8496309,2.14000138 12.5564593,2.14000138 C15.3198591,2.14086165 17.917514,3.23778871 19.8709533,5.22827561 C21.824308,7.21859045 22.8994095,9.86451514 22.8983108,12.678192 C22.8960287,18.4845673 18.2547511,23.2086402 12.5524023,23.2086402 Z M0.104382895,12.668729 C0.103537689,14.9018114 0.676671623,17.0814711 1.76597263,19.0025344 L0,25.5681818 L6.59885839,23.80644 C8.41681117,24.8156198 10.4638992,25.3475232 12.547331,25.3482975 L12.5524023,25.3482975 C19.4126828,25.3482975 24.9972099,19.6645102 24.9999991,12.6787942 C25.0012669,9.29381369 23.7077642,6.11039388 21.3575854,3.71575333 C19.0074912,1.32102674 15.8820898,0.00172053496 12.5522332,5.15143483e-14 C5.69119207,5.15143483e-14 0.107172073,5.6833571 0.104382895,12.668729 Z" id="Whatsapp-logo" fill="#677B8C"></path>
    </g>
</svg>